<?xml version="1.0" encoding="UTF-8"?>
<!-- Created with Inkscape (http://www.inkscape.org/) -->
<svg width="60.099mm" height="25.811mm" version="1.1" viewBox="0 0 60.099 25.811" xmlns="http://www.w3.org/2000/svg" xmlns:cc="http://creativecommons.org/ns#" xmlns:dc="http://purl.org/dc/elements/1.1/" xmlns:rdf="http://www.w3.org/1999/02/22-rdf-syntax-ns#">
 <metadata>
  <rdf:RDF>
   <cc:Work rdf:about="">
    <dc:format>image/svg+xml</dc:format>
    <dc:type rdf:resource="http://purl.org/dc/dcmitype/StillImage"/>
    <dc:title/>
   </cc:Work>
  </rdf:RDF>
 </metadata>
 <g transform="translate(-64.444 -107.2)">
  <g transform="translate(-7.5379 -37.989)" fill="#316081">
   <g transform="matrix(.92961 0 0 .92961 5.6832 -4.2513)">
    <path d="m85.273 177.07c-1.0652 0-1.774-0.74116-1.774-2.3224v-8.7677c0-3.3837-1.9984-5.221-5.644-5.221-3.2246 0-5.1926 1.2566-6.1924 3.9321l0.41843 0.32336c0.9688-2.7085 2.8385-3.8047 5.774-3.8047 3.3229 0 5.1299 1.7727 5.1299 4.7703v1.999l-5.7093 1.0645c-4.1934 0.77349-5.9331 2.1271-5.9331 4.6739 0 2.3851 1.8684 3.8034 5.029 3.8034 2.6768 0 5.7093-1.0645 6.6135-3.4173v0.45206c0 2.5145 1.32 2.9653 2.3205 2.9653 0.51544 0 0.8705-0.097 1.1609-0.28974l0.03233-0.45142c-0.29038 0.22571-0.74245 0.29039-1.2256 0.29039zm-8.7405 0c-2.9349 0-4.6759-1.2579-4.6759-3.3526 0-2.1607 1.547-3.5143 5.7727-4.2878l5.3556-0.99984v3.9004c0 3.3526-3.9366 4.7399-6.4524 4.7399z"/>
    <path d="m96.172 160.76c-3.3889 0-5.9713 1.968-6.7124 4.6125v-4.291h-0.51415v16.133h0.51415v-9.7119c0-3.3552 2.8398-6.2914 6.6154-6.2914 3.4225 0 5.5858 2.0003 5.5858 5.4532v10.55h0.5135v-10.615c0-3.7103-2.2894-5.8393-6.0023-5.8393z"/>
    <path d="m112.52 160.76c-3.3889 0-5.9719 1.968-6.713 4.6125v-4.291h-0.51415v16.133h0.51415v-9.7119c0-3.3552 2.8398-6.2914 6.616-6.2914 3.4218 0 5.5852 2.0003 5.5852 5.4532v10.55h0.51415v-10.615c0-3.7103-2.2894-5.8393-6.0023-5.8393z"/>
    <path d="m128.46 160.76c-4.6758 0-7.5434 3.1586-7.5434 8.3803 0 5.2223 2.8676 8.3816 7.5434 8.3816 4.6765 0 7.5137-3.1593 7.5137-8.3816 0-5.2217-2.8372-8.3803-7.5137-8.3803zm0 0.45077c4.3551 0 6.9996 2.9982 6.9996 7.9296 0 4.932-2.6445 7.9308-6.9996 7.9308-4.3531 0-7.0293-2.9989-7.0293-7.9308 0-4.9313 2.6762-7.9296 7.0293-7.9296z"/>
   </g>
   <g stroke-width=".21469" aria-label="documentation">
    <path d="m75.529 164.65v2.894c-0.25762-0.6183-0.83298-1.0047-1.5801-1.0047-1.2108 0-1.9665 0.83299-1.9665 2.2328 0 1.3998 0.7557 2.2327 1.9665 2.2327 0.77287 0 1.3568-0.40361 1.5973-1.0477l0.02576 0.96179h0.38644v-6.2688zm-1.5286 5.9769c-0.99615 0-1.5887-0.70417-1.5887-1.8549 0-1.1507 0.59254-1.8549 1.5887-1.8549 0.92745 0 1.5286 0.69559 1.5286 1.812v0.0859c0 1.125-0.60971 1.812-1.5286 1.812z"/>
    <path d="m79.259 166.54c-1.2709 0-2.0438 0.84158-2.0438 2.2328s0.77287 2.2327 2.0438 2.2327c1.2709 0 2.0438-0.84157 2.0438-2.2327s-0.77287-2.2328-2.0438-2.2328zm0 0.36926c1.0047 0 1.6144 0.70418 1.6144 1.8635 0 1.1593-0.60971 1.8635-1.6144 1.8635s-1.6144-0.70418-1.6144-1.8635c0-1.1593 0.60971-1.8635 1.6144-1.8635z"/>
    <path d="m84.307 166.54c-1.2709 0-2.0266 0.84158-2.0266 2.2328s0.74711 2.2327 2.0181 2.2327c0.88451 0 1.5629-0.4809 1.7862-1.2624l-0.39502-0.1374c-0.12022 0.64406-0.66982 1.0219-1.3998 1.0219-1.0047 0-1.5801-0.69559-1.5801-1.8549 0-1.1593 0.59254-1.8549 1.5887-1.8549 0.69558 0 1.1593 0.3435 1.3482 0.97039l0.40361-0.18893c-0.26621-0.72993-0.87592-1.1593-1.7433-1.1593z"/>
    <path d="m90.369 166.62v2.4646c0 0.83299-0.59254 1.5372-1.5629 1.5372-0.73852 0-1.1851-0.37785-1.1851-1.271v-2.7308h-0.42937v2.8339c0 1.0563 0.64406 1.5458 1.5457 1.5458 0.77287 0 1.3826-0.33491 1.6574-0.94462l0.01717 0.85874h0.38644v-4.2937z"/>
    <path d="m97.478 166.53c-0.69558 0-1.3912 0.36926-1.6316 1.0133-0.22327-0.66983-0.8244-1.0047-1.5372-1.0047-0.66982 0-1.2709 0.32633-1.5629 0.92745l-0.02576-0.84157h-0.38644v4.2937h0.42937v-2.4302c0-0.98756 0.72994-1.5715 1.5028-1.5715 0.72994 0 1.2366 0.4122 1.2366 1.2624v2.7394h0.42937v-2.4732c0-0.90168 0.66982-1.5372 1.4942-1.5372 0.72994 0 1.2366 0.42079 1.2366 1.2624v2.7394h0.42937v-2.7823c0-1.0648-0.71276-1.5973-1.6144-1.5973z"/>
    <path d="m104.16 168.67c0-1.2538-0.67841-2.1297-1.8721-2.1297-1.2538 0-1.9751 0.84158-1.9751 2.2328s0.7557 2.2327 2.0266 2.2327c0.85874 0 1.4427-0.36926 1.7604-0.97897l-0.36068-0.18893c-0.21468 0.50666-0.72993 0.79005-1.3998 0.79005-0.95321 0-1.5372-0.62689-1.5973-1.6746h3.4006c9e-3 -0.0687 0.0172-0.17175 0.0172-0.28338zm-1.8721-1.7518c0.8931 0 1.4084 0.62689 1.4685 1.6488h-3.0142c0.0601-1.0391 0.6183-1.6488 1.5457-1.6488z"/>
    <path d="m107.39 166.54c-0.71276 0-1.3225 0.32633-1.5973 0.94462l-0.0258-0.85874h-0.38644v4.2937h0.42937v-2.4217c0-1.0047 0.72994-1.5801 1.5372-1.5801 0.73852 0 1.2538 0.4122 1.2538 1.3568v2.6449h0.42937v-2.7823c0-1.0563-0.68699-1.5973-1.6402-1.5973z"/>
    <path d="m112.61 170.29c-0.2061 0.2061-0.43796 0.31773-0.74711 0.31773-0.48948 0-0.75569-0.28338-0.75569-0.82439v-2.7909h1.6144v-0.36926h-1.6144v-1.1937l-0.42938 0.12022v1.0734h-0.85874v0.36926h0.85874v2.851c0 0.79863 0.44655 1.1593 1.1164 1.1593 0.4122 0 0.74711-0.14599 0.97039-0.36068z"/>
    <path d="m117.09 170.63c-0.25762 0-0.39502-0.14599-0.39502-0.45514v-2.2156c0-0.95321-0.62689-1.4255-1.5973-1.4255-0.85016 0-1.4513 0.37785-1.7003 1.0477l0.32632 0.24045c0.24045-0.62688 0.70418-0.91027 1.374-0.91027 0.7557 0 1.1679 0.42079 1.1679 1.0992v0.37785l-1.3139 0.23186c-1.1164 0.19751-1.6316 0.63547-1.6316 1.2881 0 0.71276 0.57536 1.0906 1.3998 1.0906 0.60971 0 1.2795-0.24904 1.5543-0.72994 0.0429 0.58395 0.35209 0.72994 0.70417 0.72994 0.18034 0 0.32633-0.0343 0.42079-0.0859l0.0258-0.3435c-0.0859 0.0429-0.21468 0.0601-0.33491 0.0601zm-2.3272-9e-3c-0.62689 0-1.0047-0.25763-1.0047-0.71276 0-0.4809 0.40361-0.78146 1.3311-0.95321l1.1765-0.21469v0.79864c0 0.72134-0.82439 1.082-1.5028 1.082z"/>
    <path d="m120.38 170.29c-0.20609 0.2061-0.43796 0.31773-0.74711 0.31773-0.48948 0-0.75569-0.28338-0.75569-0.82439v-2.7909h1.6144v-0.36926h-1.6144v-1.1937l-0.42938 0.12022v1.0734h-0.85874v0.36926h0.85874v2.851c0 0.79863 0.44655 1.1593 1.1164 1.1593 0.41219 0 0.7471-0.14599 0.97038-0.36068z"/>
    <path d="m121.61 165.79c0.21469 0 0.36067-0.14598 0.36067-0.36067s-0.14598-0.36067-0.36067-0.36067-0.36067 0.14598-0.36067 0.36067 0.14598 0.36067 0.36067 0.36067zm0.21469 0.83299h-0.42938v4.2937h0.42938z"/>
    <path d="m125.13 166.54c-1.271 0-2.0438 0.84158-2.0438 2.2328s0.77287 2.2327 2.0438 2.2327 2.0438-0.84157 2.0438-2.2327-0.77287-2.2328-2.0438-2.2328zm0 0.36926c1.0047 0 1.6144 0.70418 1.6144 1.8635 0 1.1593-0.60971 1.8635-1.6144 1.8635s-1.6144-0.70418-1.6144-1.8635c0-1.1593 0.60971-1.8635 1.6144-1.8635z"/>
    <path d="m130.44 166.54c-0.71276 0-1.3225 0.32633-1.5973 0.94462l-0.0258-0.85874h-0.38643v4.2937h0.42937v-2.4217c0-1.0047 0.72994-1.5801 1.5372-1.5801 0.73852 0 1.2538 0.4122 1.2538 1.3568v2.6449h0.42937v-2.7823c0-1.0563-0.687-1.5973-1.6402-1.5973z"/>
   </g>
  </g>
 </g>
</svg>
