<?xml version="1.0" encoding="UTF-8"?>
<svg width="67.215mm" height="17.462mm" version="1.1" viewBox="0 0 67.215 17.462" xmlns="http://www.w3.org/2000/svg" xmlns:cc="http://creativecommons.org/ns#" xmlns:dc="http://purl.org/dc/elements/1.1/" xmlns:rdf="http://www.w3.org/1999/02/22-rdf-syntax-ns#">
 <defs>
  <clipPath id="clip1-8">
   <path d="m246 261h82.559v92h-82.559z"/>
  </clipPath>
 </defs>
 <metadata>
  <rdf:RDF>
   <cc:Work rdf:about="">
    <dc:format>image/svg+xml</dc:format>
    <dc:type rdf:resource="http://purl.org/dc/dcmitype/StillImage"/>
    <dc:title/>
   </cc:Work>
  </rdf:RDF>
 </metadata>
 <g transform="matrix(.19177 0 0 -.19177 -100.72 -59.198)">
  <g transform="matrix(1 0 0 -1 279.09 -47.331)" clip-path="url(#clip1-8)">
   <path d="m321.73 350.05c-5.7656 0-9.6211-4.0352-9.6211-12.629v-47.707c0-18.422-10.809-28.344-30.621-28.344-17.535 0-28.23 6.7656-33.648 21.324l2.2578 1.7539c5.2656-14.73 15.438-20.691 31.391-20.691 18.059 0 27.875 9.6445 27.875 25.957v10.875l-31.035 5.7812c-22.793 4.2148-32.203 11.582-32.203 25.434 0 12.98 10.109 20.625 27.301 20.625 14.547 0 31.031-5.7148 35.938-18.52v2.4531c0 13.688 7.125 16.066 12.547 16.066 2.7969 0 4.7266-0.51172 6.3008-1.5312l0.17188-2.4297c-1.5742 1.2305-4.0274 1.582-6.6524 1.582zm-47.43 0c-15.961 0-25.434-6.8476-25.434-18.246 0-11.746 8.4258-19.117 31.391-23.324l29.105-5.4375v21.223c0 18.242-21.391 25.785-35.062 25.785z" fill="#305e7f"/>
  </g>
  <g fill="#305e7f">
   <path d="m659.93-308.7c-18.398 0-32.422-10.605-36.457-24.953v23.25h-2.7461v-87.457h2.7461v52.656c0 18.203 15.426 34.117 35.93 34.117 18.586 0 30.324-10.844 30.324-29.563v-57.211h2.7461v57.562c0 20.113-12.383 31.598-32.543 31.598z"/>
   <path d="m748.49-308.7c-18.398 0-32.422-10.605-36.457-24.953v23.25h-2.7461v-87.457h2.7461v52.656c0 18.203 15.426 34.117 35.934 34.117 18.582 0 30.32-10.844 30.32-29.563v-57.211h2.7461v57.562c0 20.113-12.383 31.598-32.543 31.598z"/>
   <path d="m835.01-308.7c-25.363 0-40.883-17.117-40.883-45.531 0-28.41 15.52-45.527 40.883-45.527 25.367 0 40.703 17.117 40.703 45.527 0 28.414-15.336 45.531-40.703 45.531zm0-2.3867c23.617 0 37.957-16.313 37.957-43.145 0-26.836-14.34-43.148-37.957-43.148s-38.137 16.312-38.137 43.148c0 26.832 14.52 43.145 38.137 43.145z"/>
  </g>
 </g>
</svg>
